<svg xmlns="http://www.w3.org/2000/svg" version="1.1" xmlns:xlink="http://www.w3.org/1999/xlink" xmlns:svgjs="http://svgjs.dev/svgjs" width="100%" height="100%" viewBox="0 0 1000 600"><rect width="1000" height="600" x="0" y="0" fill="#fffaef"/><g><circle r="166.66666666666666" cx="591.3267923990885" cy="613.5490991568813" fill="#ff0000" transform="matrix(0.2943529648491585,0,0,0.2943529648491585,0,119.39999923478337)"/><path d="M558.292893425335 602.648809462038L611.7042771778667 538.5490932465565L671.4438804339579 538.5490932465565L617.5783182481565 600.256803046817L672.5339086738055 688.5490904744713L615.6404902662052 688.5490904744713L584.453571181677 633.6237786110403L558.292893425335 654.970164974722L558.292893425335 688.5490904744713L510.1197009365154 688.5490904744713L510.1197009365154 538.5490932465565L558.292893425335 538.5490932465565L558.292893425335 602.648809462038Z " fill="#fffaef" transform="matrix(0.2943529648491585,0,0,0.2943529648491585,0,119.39999923478337)"/><path d="M886.3041837651223 605.9162224368957L936.1722563530723 546.0688813548719L991.948734366692 546.0688813548719L941.65661354245 603.6829017257575L992.9664501337929 686.11787886094L939.8473410676036 686.11787886094L910.7293621755467 634.8363121520164L886.3041837651223 654.7665792577446L886.3041837651223 686.11787886094L841.3268008357411 686.11787886094L841.3268008357411 546.0688813548719L886.3041837651223 546.0688813548719L886.3041837651223 605.9162224368957ZM1048.516769088057 589.8306593402157Q1055.0471119269553 583.328586383737 1063.7825055945723 579.7665811988835Q1072.5461691446087 576.2045760140298 1082.1013894023906 576.2045760140298L1082.1013894023906 576.2045760140298Q1100.844321446501 576.2045760140298 1110.2016525273466 586.5796228619764Q1119.558983608192 596.9546697099229 1119.558983608192 616.517428344198L1119.558983608192 616.517428344198L1119.558983608192 686.11787886094L1079.0482421010875 686.11787886094L1079.0482421010875 621.3798481203473Q1079.0482421010875 614.4819968099961 1075.486236916234 610.2980542119141Q1071.9242317313804 606.114111613832 1065.4221587749016 606.114111613832L1065.4221587749016 606.114111613832Q1057.902370051322 606.114111613832 1053.2095695696894 611.0048012724009Q1048.516769088057 615.8954909309697 1048.516769088057 623.0195013006768L1048.516769088057 623.0195013006768L1048.516769088057 686.11787886094L1008.034297463372 686.11787886094L1008.034297463372 538.5490926312922L1048.516769088057 538.5490926312922L1048.516769088057 589.8306593402157ZM1254.9151806326274 686.11787886094L1221.754608554586 686.11787886094L1219.0972396071556 669.8344265873237Q1212.793055827613 678.5980901373603 1202.502818626925 683.5735894431874Q1192.2408513086564 688.5490887490147 1180.8198188111894 688.5490887490147L1180.8198188111894 688.5490887490147Q1162.1051566494984 688.5490887490147 1152.747825568653 678.1740419010681Q1143.3904944878075 667.7989950531216 1143.3904944878075 648.2645063012659L1143.3904944878075 648.2645063012659L1143.3904944878075 578.6357859021045L1183.8729661124926 578.6357859021045L1183.8729661124926 643.3738166426972Q1183.8729661124926 650.299937835468 1187.434971297346 654.4556105511305Q1190.9969764821997 658.6395531492125 1197.5273193210978 658.6395531492125L1197.5273193210978 658.6395531492125Q1205.0471080446775 658.6395531492125 1209.73990852631 653.7488634906437Q1214.4044391255231 648.8581738320748 1214.4044391255231 641.7341634623677L1214.4044391255231 641.7341634623677L1214.4044391255231 578.6357859021045L1254.9151806326274 578.6357859021045L1254.9151806326274 686.11787886094ZM1330.650195634395 576.2045760140298Q1352.2201159204528 576.2045760140298 1367.1748837203538 584.6572708574523Q1382.1296515202548 593.1099657008746 1382.1296515202548 610.8069120954646L1382.1296515202548 610.8069120954646L1344.4741681375172 610.8069120954646Q1344.4741681375172 604.8985066697948 1339.1877001250757 602.46729678172L1339.1877001250757 602.46729678172Q1335.5126154105442 600.431865247518 1330.0282582211667 600.431865247518L1330.0282582211667 600.431865247518Q1315.3844591278798 600.431865247518 1315.3844591278798 607.3579864402889L1315.3844591278798 607.3579864402889Q1315.3844591278798 611.2026904493372 1320.4730379633847 612.8423436296665Q1325.56161679889 614.4819968099961 1337.1522685908737 616.2912692848423L1337.1522685908737 616.2912692848423Q1351.400289330288 618.3267008190443 1360.9555095880698 621.0971492961527Q1370.5389997282712 623.8393278908414 1377.6630100979783 630.8502587308707Q1384.7870204676854 637.8894594533194 1384.7870204676854 650.4978270124043L1384.7870204676854 650.4978270124043Q1384.7870204676854 671.050031531361 1369.408204431492 679.8136950813976Q1354.0576582777185 688.5490887490147 1329.208431631002 688.5490887490147L1329.208431631002 688.5490887490147Q1314.9604108915876 688.5490887490147 1302.3520433325027 684.5913052102884Q1289.7154058909985 680.6335216715622 1281.799838813546 672.2656364753983Q1273.8560018536743 663.9260211616539 1273.8560018536743 651.1197644256328L1273.8560018536743 651.1197644256328L1311.511485236412 651.1197644256328L1311.511485236412 651.9113211333779Q1311.7093744133483 658.8374423261488 1317.306811132404 661.5796209208376Q1322.9042478514596 664.350069397946 1329.208431631002 664.350069397946L1329.208431631002 664.350069397946Q1346.1138213178467 664.350069397946 1346.1138213178467 656.4062324380741L1346.1138213178467 656.4062324380741Q1346.1138213178467 652.33536936967 1340.8273533054053 650.4978270124043Q1335.5126154105442 648.6602846551385 1323.526185264688 646.6248531209366L1323.526185264688 646.6248531209366Q1309.0520054659178 644.1936432328619 1299.8077539147503 641.3383851084951Q1290.5352324811631 638.4831269841284 1283.6091112883923 631.6700853210353Q1276.711259978041 624.8570436579424 1276.711259978041 612.6444544527303L1276.711259978041 612.6444544527303Q1276.711259978041 592.8838066415188 1291.666027777942 584.5441913277743Q1306.6207955778432 576.2045760140298 1330.650195634395 576.2045760140298L1330.650195634395 576.2045760140298ZM1444.4082024903535 589.8306593402157Q1450.9385453292516 583.328586383737 1459.6739389968686 579.7665811988835Q1468.4376025469053 576.2045760140298 1477.992822804687 576.2045760140298L1477.992822804687 576.2045760140298Q1496.7357548487973 576.2045760140298 1506.093085929643 586.5796228619764Q1515.4504170104885 596.9546697099229 1515.4504170104885 616.517428344198L1515.4504170104885 616.517428344198L1515.4504170104885 686.11787886094L1474.939675503384 686.11787886094L1474.939675503384 621.3798481203473Q1474.939675503384 614.4819968099961 1471.3776703185304 610.2980542119141Q1467.815665133677 606.114111613832 1461.313592177198 606.114111613832L1461.313592177198 606.114111613832Q1453.7938034536185 606.114111613832 1449.1010029719857 611.0048012724009Q1444.4082024903535 615.8954909309697 1444.4082024903535 623.0195013006768L1444.4082024903535 623.0195013006768L1444.4082024903535 686.11787886094L1403.9257308656684 686.11787886094L1403.9257308656684 538.5490926312922L1444.4082024903535 538.5490926312922L1444.4082024903535 589.8306593402157ZM1581.6019418720548 566.0274183430197L1541.0912003649503 566.0274183430197L1541.0912003649503 538.5490926312922L1581.6019418720548 538.5490926312922L1581.6019418720548 566.0274183430197ZM1581.6019418720548 686.11787886094L1541.0912003649503 686.11787886094L1541.0912003649503 578.6357859021045L1581.6019418720548 578.6357859021045L1581.6019418720548 686.11787886094ZM1738.7542182419036 546.0688813548719Q1812.2276426501132 546.0688813548719 1812.2276426501132 616.093380107906L1812.2276426501132 616.093380107906Q1812.2276426501132 686.11787886094 1738.7542182419036 686.11787886094L1738.7542182419036 686.11787886094L1678.087050569715 686.11787886094L1678.087050569715 546.0688813548719L1738.7542182419036 546.0688813548719ZM1723.0644334990964 579.6535016692056L1723.0644334990964 652.5332585466064L1737.9343916517391 652.5332585466064Q1766.2325439536314 652.5332585466064 1766.2325439536314 622.1996747105121L1766.2325439536314 622.1996747105121L1766.2325439536314 609.9870855052999Q1766.2325439536314 579.6535016692056 1737.9343916517391 579.6535016692056L1737.9343916517391 579.6535016692056L1723.0644334990964 579.6535016692056ZM1875.523909387313 566.0274183430197L1835.0131678802084 566.0274183430197L1835.0131678802084 538.5490926312922L1875.523909387313 538.5490926312922L1875.523909387313 566.0274183430197ZM1875.523909387313 686.11787886094L1835.0131678802084 686.11787886094L1835.0131678802084 578.6357859021045L1875.523909387313 578.6357859021045L1875.523909387313 686.11787886094ZM1952.4745293331177 576.2045760140298Q1974.0444496191756 576.2045760140298 1988.9992174190768 584.6572708574523Q2003.9539852189776 593.1099657008746 2003.9539852189776 610.8069120954646L2003.9539852189776 610.8069120954646L1966.29850183624 610.8069120954646Q1966.29850183624 604.8985066697948 1961.0120338237982 602.46729678172L1961.0120338237982 602.46729678172Q1957.336949109267 600.431865247518 1951.8525919198894 600.431865247518L1951.8525919198894 600.431865247518Q1937.2087928266026 600.431865247518 1937.2087928266026 607.3579864402889L1937.2087928266026 607.3579864402889Q1937.2087928266026 611.2026904493372 1942.2973716621075 612.8423436296665Q1947.3859504976124 614.4819968099961 1958.9766022895963 616.2912692848423L1958.9766022895963 616.2912692848423Q1973.224623029011 618.3267008190443 1982.7798432867928 621.0971492961527Q1992.3633334269937 623.8393278908414 1999.487343796701 630.8502587308707Q2006.6113541664079 637.8894594533194 2006.6113541664079 650.4978270124043L2006.6113541664079 650.4978270124043Q2006.6113541664079 671.050031531361 1991.2325381302146 679.8136950813976Q1975.8819919764412 688.5490887490147 1951.0327653297247 688.5490887490147L1951.0327653297247 688.5490887490147Q1936.7847445903105 688.5490887490147 1924.1763770312257 684.5913052102884Q1911.5397395897214 680.6335216715622 1903.6241725122688 672.2656364753983Q1895.6803355523969 663.9260211616539 1895.6803355523969 651.1197644256328L1895.6803355523969 651.1197644256328L1933.3358189351345 651.1197644256328L1933.3358189351345 651.9113211333779Q1933.5337081120708 658.8374423261488 1939.1311448311264 661.5796209208376Q1944.728581550182 664.350069397946 1951.0327653297247 664.350069397946L1951.0327653297247 664.350069397946Q1967.9381550165692 664.350069397946 1967.9381550165692 656.4062324380741L1967.9381550165692 656.4062324380741Q1967.9381550165692 652.33536936967 1962.651687004128 650.4978270124043Q1957.336949109267 648.6602846551385 1945.3505189634104 646.6248531209366L1945.3505189634104 646.6248531209366Q1930.8763391646405 644.1936432328619 1921.632087613473 641.3383851084951Q1912.359566179886 638.4831269841284 1905.433444987115 631.6700853210353Q1898.535593676764 624.8570436579424 1898.535593676764 612.6444544527303L1898.535593676764 612.6444544527303Q1898.535593676764 592.8838066415188 1913.4903614766647 584.5441913277743Q1928.445129276566 576.2045760140298 1952.4745293331177 576.2045760140298L1952.4745293331177 576.2045760140298ZM2074.60042138524 578.6357859021045L2097.3859466153353 578.6357859021045L2097.3859466153353 606.114111613832L2074.60042138524 606.114111613832L2074.60042138524 647.0489013572286Q2074.60042138524 654.370800903872 2077.031631273315 657.7349169117894Q2079.4628411613894 661.0707630372871 2085.9931840002873 661.0707630372871L2085.9931840002873 661.0707630372871L2097.3859466153353 661.0707630372871L2097.3859466153353 684.9022739169026Q2092.4952569567668 686.5136572148126 2084.77757905625 687.5313729819136Q2077.031631273315 688.5490887490147 2071.3211150245816 688.5490887490147L2071.3211150245816 688.5490887490147Q2053.426279453055 688.5490887490147 2043.7579796655953 682.047015792536Q2034.0896798781357 675.5449428360572 2034.0896798781357 659.8551580932498L2034.0896798781357 659.8551580932498L2034.0896798781357 606.114111613832L2019.0218325485569 606.114111613832L2019.0218325485569 578.6357859021045L2035.7010631760456 578.6357859021045L2044.4647267260823 546.0688813548719L2074.60042138524 546.0688813548719L2074.60042138524 578.6357859021045ZM2181.4605769308473 576.0066868370935Q2186.1251075300597 576.0066868370935 2189.800192244592 577.109212251453Q2193.447007076704 578.2400075482319 2193.447007076704 578.4378967251682L2193.447007076704 578.4378967251682L2193.447007076704 612.4465652757939L2180.442861163746 612.4465652757939Q2167.806223722242 612.4465652757939 2162.2087870031864 618.9486382322726Q2156.611350284131 625.4507111887514 2156.611350284131 638.2852378071921L2156.611350284131 638.2852378071921L2156.611350284131 686.11787886094L2116.1006087770256 686.11787886094L2116.1006087770256 578.6357859021045L2149.2894507374867 578.6357859021045L2151.9468196849175 594.9192381757208Q2155.5936345170294 585.5619070948754 2163.5374714769014 580.7842969659845Q2171.4813084367734 576.0066868370935 2181.4605769308473 576.0066868370935L2181.4605769308473 576.0066868370935ZM2248.4036585001586 566.0274183430197L2207.9211868754737 566.0274183430197L2207.9211868754737 538.5490926312922L2248.4036585001586 538.5490926312922L2248.4036585001586 566.0274183430197ZM2248.4036585001586 686.11787886094L2207.9211868754737 686.11787886094L2207.9211868754737 578.6357859021045L2248.4036585001586 578.6357859021045L2248.4036585001586 686.11787886094ZM2314.9792315980167 588.6150543961784Q2326.5698833900005 576.2045760140298 2345.086656374755 576.2045760140298L2345.086656374755 576.2045760140298Q2366.882735720169 576.2045760140298 2378.6712766890887 590.3395172237663Q2390.4880875404288 604.5027283159221 2390.4880875404288 632.178943204586L2390.4880875404288 632.178943204586Q2390.4880875404288 660.0530472701861 2378.6712766890887 674.3010680096004Q2366.882735720169 688.5490887490147 2345.086656374755 688.5490887490147L2345.086656374755 688.5490887490147Q2322.6969094985325 688.5490887490147 2310.9083685296127 670.8521423544247L2310.9083685296127 670.8521423544247L2307.4311729920173 686.11787886094L2274.4684900909124 686.11787886094L2274.4684900909124 538.5490926312922L2314.9792315980167 538.5490926312922L2314.9792315980167 588.6150543961784ZM2332.4782888156706 606.114111613832Q2323.516736088697 606.114111613832 2319.0500946664206 612.5313749230523Q2314.5551833617246 618.9486382322726 2314.5551833617246 629.1257959032829L2314.5551833617246 629.1257959032829L2314.5551833617246 635.8540279191174Q2314.5551833617246 646.0311855901276 2319.0500946664206 652.33536936967Q2323.516736088697 658.6395531492125 2332.4782888156706 658.6395531492125L2332.4782888156706 658.6395531492125Q2349.9773460333245 658.6395531492125 2349.9773460333245 637.8894594533194L2349.9773460333245 637.8894594533194L2349.9773460333245 627.0903643690808Q2349.9773460333245 606.114111613832 2332.4782888156706 606.114111613832L2332.4782888156706 606.114111613832ZM2521.1514840832315 686.11787886094L2487.99091200519 686.11787886094L2485.33354305776 669.8344265873237Q2479.0293592782173 678.5980901373603 2468.739122077529 683.5735894431874Q2458.477154759261 688.5490887490147 2447.084392144213 688.5490887490147L2447.084392144213 688.5490887490147Q2428.341460100103 688.5490887490147 2418.984129019257 678.1740419010681Q2409.626797938412 667.7989950531216 2409.626797938412 648.2645063012659L2409.626797938412 648.2645063012659L2409.626797938412 578.6357859021045L2450.1375394455163 578.6357859021045L2450.1375394455163 643.3738166426972Q2450.1375394455163 650.299937835468 2453.69954463037 654.4556105511305Q2457.2615498152236 658.6395531492125 2463.763622771702 658.6395531492125L2463.763622771702 658.6395531492125Q2471.283411495282 658.6395531492125 2475.976211976914 653.7488634906437Q2480.6690124585466 648.8581738320748 2480.6690124585466 641.7341634623677L2480.6690124585466 641.7341634623677L2480.6690124585466 578.6357859021045L2521.1514840832315 578.6357859021045L2521.1514840832315 686.11787886094ZM2594.653178373861 578.6357859021045L2617.438703603956 578.6357859021045L2617.438703603956 606.114111613832L2594.653178373861 606.114111613832L2594.653178373861 647.0489013572286Q2594.653178373861 654.370800903872 2597.0843882619356 657.7349169117894Q2599.51559815001 661.0707630372871 2606.045940988908 661.0707630372871L2606.045940988908 661.0707630372871L2617.438703603956 661.0707630372871L2617.438703603956 684.9022739169026Q2612.5480139453875 686.5136572148126 2604.830336044871 687.5313729819136Q2597.0843882619356 688.5490887490147 2591.3738720132023 688.5490887490147L2591.3738720132023 688.5490887490147Q2573.479036441676 688.5490887490147 2563.8107366542163 682.047015792536Q2554.1424368667567 675.5449428360572 2554.1424368667567 659.8551580932498L2554.1424368667567 659.8551580932498L2554.1424368667567 606.114111613832L2539.0745895371774 606.114111613832L2539.0745895371774 578.6357859021045L2555.7538201646666 578.6357859021045L2564.5174837147033 546.0688813548719L2594.653178373861 546.0688813548719L2594.653178373861 578.6357859021045ZM2691.73195460233 576.2045760140298Q2720.0301069042225 576.2045760140298 2736.2004796481615 590.5656762831221Q2752.399122274519 604.8985066697948 2752.399122274519 632.3768323815223L2752.399122274519 632.3768323815223Q2752.399122274519 659.8551580932498 2736.2004796481615 674.2162583623419Q2720.0301069042225 688.5490887490147 2691.73195460233 688.5490887490147L2691.73195460233 688.5490887490147Q2663.4338023004375 688.5490887490147 2647.3482392037577 674.3010680096004Q2631.2909459894972 660.0530472701861 2631.2909459894972 632.3768323815223L2631.2909459894972 632.3768323815223Q2631.2909459894972 604.7006174928584 2647.3482392037577 590.4525967534441Q2663.4338023004375 576.2045760140298 2691.73195460233 576.2045760140298L2691.73195460233 576.2045760140298ZM2691.73195460233 603.6829017257575Q2671.773417614182 603.6829017257575 2671.773417614182 626.6945860152083L2671.773417614182 626.6945860152083L2671.773417614182 638.2852378071921Q2671.773417614182 661.0707630372871 2691.73195460233 661.0707630372871L2691.73195460233 661.0707630372871Q2711.8883807674147 661.0707630372871 2711.8883807674147 638.2852378071921L2711.8883807674147 638.2852378071921L2711.8883807674147 626.6945860152083Q2711.8883807674147 603.6829017257575 2691.73195460233 603.6829017257575L2691.73195460233 603.6829017257575ZM2837.265309297776 576.0066868370935Q2841.958109779409 576.0066868370935 2845.60492461152 577.109212251453Q2849.280009326052 578.2400075482319 2849.280009326052 578.4378967251682L2849.280009326052 578.4378967251682L2849.280009326052 612.4465652757939L2836.2475935306747 612.4465652757939Q2823.6392259715903 612.4465652757939 2818.0417892525347 618.9486382322726Q2812.444352533479 625.4507111887514 2812.444352533479 638.2852378071921L2812.444352533479 638.2852378071921L2812.444352533479 686.11787886094L2771.933611026375 686.11787886094L2771.933611026375 578.6357859021045L2805.0941831044165 578.6357859021045L2807.7515520518464 594.9192381757208Q2811.4266367663777 585.5619070948754 2819.3422038438302 580.7842969659845Q2827.2860408037022 576.0066868370935 2837.265309297776 576.0066868370935L2837.265309297776 576.0066868370935ZM2918.4846814889215 576.2045760140298Q2940.0546017749784 576.2045760140298 2955.00936957488 584.6572708574523Q2969.964137374781 593.1099657008746 2969.964137374781 610.8069120954646L2969.964137374781 610.8069120954646L2932.308653992043 610.8069120954646Q2932.308653992043 604.8985066697948 2927.022185979602 602.46729678172L2927.022185979602 602.46729678172Q2923.37537114749 600.431865247518 2917.8627440756927 600.431865247518L2917.8627440756927 600.431865247518Q2903.2189449824054 600.431865247518 2903.2189449824054 607.3579864402889L2903.2189449824054 607.3579864402889Q2903.2189449824054 611.2026904493372 2908.307523817911 612.8423436296665Q2913.396102653416 614.4819968099961 2924.9867544454 616.2912692848423L2924.9867544454 616.2912692848423Q2939.2347751848138 618.3267008190443 2948.818265325015 621.0971492961527Q2958.373485582797 623.8393278908414 2965.4974959525043 630.8502587308707Q2972.6215063222116 637.8894594533194 2972.6215063222116 650.4978270124043L2972.6215063222116 650.4978270124043Q2972.6215063222116 671.050031531361 2957.242690286018 679.8136950813976Q2941.8921441322445 688.5490887490147 2917.042917485528 688.5490887490147L2917.042917485528 688.5490887490147Q2902.7948967461134 688.5490887490147 2890.186529187029 684.5913052102884Q2877.5781616279446 680.6335216715622 2869.6343246680726 672.2656364753983Q2861.6904877082006 663.9260211616539 2861.6904877082006 651.1197644256328L2861.6904877082006 651.1197644256328L2899.3459710909383 651.1197644256328L2899.3459710909383 651.9113211333779Q2899.543860267874 658.8374423261488 2905.14129698693 661.5796209208376Q2910.7387337059854 664.350069397946 2917.042917485528 664.350069397946L2917.042917485528 664.350069397946Q2933.9483071723726 664.350069397946 2933.9483071723726 656.4062324380741L2933.9483071723726 656.4062324380741Q2933.9483071723726 652.33536936967 2928.6618391599313 650.4978270124043Q2923.37537114749 648.6602846551385 2911.360671119214 646.6248531209366L2911.360671119214 646.6248531209366Q2896.9147612028637 644.1936432328619 2887.642239769276 641.3383851084951Q2878.369718335689 638.4831269841284 2871.471867025338 631.6700853210353Q2864.5457458325673 624.8570436579424 2864.5457458325673 612.6444544527303L2864.5457458325673 612.6444544527303Q2864.5457458325673 592.8838066415188 2879.500513632468 584.5441913277743Q2894.455281432369 576.2045760140298 2918.4846814889215 576.2045760140298L2918.4846814889215 576.2045760140298Z " fill="#ff0000" transform="matrix(0.2943529648491585,0,0,0.2943529648491585,0,119.39999923478337)"/></g></svg>